PathFileType	4	(x/y/z)	S02_PSF_T02
DataRate	CameraRate	NumFrames	NumMarkers	Units	OrigDataRate	OrigDataStartFrame	OrigNumFrames
240	240	5	51	mm	240	1	410
Frame#	Time	Sternum			R.Acromium			L.Acromium			Top.Head			R.ASIS			L.ASIS			R.PSIS			L.PSIS			R.Great.Tro			L.Great.Tro			R.Iliac.Crest			L.Iliac.Crest			V.Sacral			R.Thigh.Upper.Post			R.Thigh.Lower.Ant			R.Thigh.Lower.Post			R.Thigh.Upper.Ant			R.Knee.Lat			R.Knee.Med			R.Shank.Upper.Post			R.Shank.Lower.Ant			R.Shank.Lower.Post			R.Shank.Upper.Ant			R.Ankle.Lat			R.Ankle.Med			R.Heel.Upper			R.Heel.Med			R.Heel.Lat			R.Toe.Lat			R.Toe.Med			R.Toe.Tip			L.Thigh.Upper.Post			L.Thigh.Lower.Ant			L.Thigh.Lower.Post			L.Thigh.Upper.Ant			L.Knee.Lat			L.Knee.Med			L.Shank.Upper.Post			L.Shank.Lower.Ant			L.Shank.Lower.Post			L.Shank.Upper.Ant			L.Ankle.Lat			L.Ankle.Med			L.Heel.Upper			L.Heel.Med			L.Heel.Lat			L.Toe.Lat			L.Toe.Med			L.Toe.Tip			Cervical.Spine			Back			
		X1	Y1	Z1	X2	Y2	Z2	X3	Y3	Z3	X4	Y4	Z4	X5	Y5	Z5	X6	Y6	Z6	X7	Y7	Z7	X8	Y8	Z8	X9	Y9	Z9	X10	Y10	Z10	X11	Y11	Z11	X12	Y12	Z12	X13	Y13	Z13	X14	Y14	Z14	X15	Y15	Z15	X16	Y16	Z16	X17	Y17	Z17	X18	Y18	Z18	X19	Y19	Z19	X20	Y20	Z20	X21	Y21	Z21	X22	Y22	Z22	X23	Y23	Z23	X24	Y24	Z24	X25	Y25	Z25	X26	Y26	Z26	X27	Y27	Z27	X28	Y28	Z28	X29	Y29	Z29	X30	Y30	Z30	X31	Y31	Z31	X32	Y32	Z32	X33	Y33	Z33	X34	Y34	Z34	X35	Y35	Z35	X36	Y36	Z36	X37	Y37	Z37	X38	Y38	Z38	X39	Y39	Z39	X40	Y40	Z40	X41	Y41	Z41	X42	Y42	Z42	X43	Y43	Z43	X44	Y44	Z44	X45	Y45	Z45	X46	Y46	Z46	X47	Y47	Z47	X48	Y48	Z48	X49	Y49	Z49	X50	Y50	Z50	X51	Y51	Z51	

1	0	NaN	NaN	NaN	-1521.7	1324.5	470.53	-1553.3	1335.9	179.63	-1500.2	1615.6	324.71	NaN	NaN	NaN	NaN	NaN	NaN	-1689.6	967.96	359.89	-1688.4	971.61	284.96	-1578	796.55	515.22	-1567.3	809.32	124.92	-1599.7	966.02	482.25	-1578.3	966.4	147.79	-1719.7	926.29	314.63	-1624	605.89	486.61	-1599.9	515.07	444.68	-1667.3	528.86	464.34	-1564.5	595.05	465.71	-1674.1	448.34	445.04	-1693.2	445.52	300.44	NaN	NaN	NaN	-1820.1	197.37	410.38	NaN	NaN	NaN	-1752.8	236.98	418.87	-1832.3	106.82	391.09	-1820.3	126.42	304.46	-1895	93.341	335.11	-1882.7	58.401	308.69	-1895.1	62.679	371.32	-1731.3	45.161	412.18	-1701.3	39.528	306.85	-1649.3	63.884	361.05	-1514.2	589.74	143.22	-1413.4	545.05	152.98	-1481.9	507.76	168.37	-1454.3	628.13	128.7	-1397.3	470.58	163.22	-1410.7	462.39	305.32	-1400.6	283.69	165.3	-1298.4	238.02	171.06	-1373.9	219.26	177.35	-1337.5	302.45	157.71	-1289.4	124.17	184.24	-1265.2	132.3	266.45	NaN	NaN	NaN	-1300.1	51.021	258.53	-1305.6	42.069	197.28	-1158.6	104.18	153.26	-1135.4	130.06	256.87	-1092.6	168.87	206.25	-1617.7	1393.5	336.6	-1700	1145.9	340.96
2	0.0041667	NaN	NaN	NaN	-1516.6	1323.3	469.98	-1548.3	1334.7	179.04	-1495.4	1614.5	323.95	NaN	NaN	NaN	NaN	NaN	NaN	-1684.6	966.86	359.35	-1683.1	970.4	284.41	-1573.2	795.55	515.07	-1562.2	807.99	124.68	-1594.8	964.86	481.95	-1573.1	964.97	147.27	-1714.7	925.24	314.09	-1619.7	604.99	486.46	-1595.2	514.43	444.59	-1663.4	528.15	464.23	-1559.9	594.15	465.57	-1670.3	447.5	444.9	-1689.3	444.73	300.47	NaN	NaN	NaN	-1818.3	197.63	410.5	NaN	NaN	NaN	-1750.1	237.15	418.96	-1831.7	107.42	391.34	-1820	126.75	304.91	-1894.8	94.251	335.48	-1882.5	59.377	308.91	-1894.9	63.462	371.56	-1731.3	45.149	412.28	-1701.2	39.523	306.88	-1649.4	63.768	361.11	-1508	588.98	142.82	-1407.2	544.63	153.23	-1475.6	507.02	168.03	-1448.3	627.57	128.86	-1391.2	469.92	163.55	-1405	461.63	305.47	-1394.6	282.85	165.4	-1292.2	237.4	171.5	-1367	218.33	177.83	-1331.5	301.72	158.03	-1282.8	123.43	184.69	-1259.5	131.4	266.63	NaN	NaN	NaN	-1293.9	50.178	258.82	-1298.8	41.198	197.55	-1151.7	103.94	154.55	-1129.6	130.03	258.29	-1086.6	169.07	207.85	-1612.7	1392.4	336.04	-1694.9	1144.7	340.56
3	0.0083333	NaN	NaN	NaN	-1511.4	1322.1	469.39	-1543.1	1333.4	178.41	-1490.4	1613.4	323.15	NaN	NaN	NaN	NaN	NaN	NaN	-1679.3	965.71	358.8	-1677.7	969.15	283.85	-1568.2	794.51	514.9	-1556.8	806.64	124.42	-1589.6	963.65	481.63	-1567.6	963.5	146.75	-1709.4	924.13	313.54	-1615.2	604.07	486.31	-1590.3	513.77	444.49	-1659.4	527.4	464.11	-1555.1	593.21	465.42	-1666.3	446.64	444.76	-1685.3	443.9	300.49	NaN	NaN	NaN	-1816.4	197.91	410.62	NaN	NaN	NaN	-1747.2	237.33	419.04	-1831	108.06	391.6	-1819.6	127.12	305.38	-1894.5	95.243	335.88	-1882.3	60.436	309.16	-1894.7	64.318	371.81	-1731.2	45.132	412.39	-1701.2	39.517	306.92	-1649.4	63.644	361.17	-1501.6	588.18	142.43	-1400.8	544.19	153.48	-1469.1	506.26	167.7	-1442	626.99	129.03	-1384.9	469.21	163.87	-1399.1	460.86	305.62	-1388.4	281.97	165.51	-1285.9	236.66	172	-1360	217.35	178.34	-1325.3	300.91	158.37	-1276.2	122.6	185.17	-1253.8	130.41	266.85	NaN	NaN	NaN	-1287.6	49.27	259.12	-1292.1	40.277	197.83	-1144.8	103.56	155.91	-1123.6	129.82	259.77	-1080.4	169.06	209.53	-1607.6	1391.2	335.45	-1689.6	1143.4	340.14
4	0.0125	NaN	NaN	NaN	-1506	1320.8	468.78	-1537.7	1332	177.76	-1485.3	1612.2	322.31	NaN	NaN	NaN	NaN	NaN	NaN	-1673.8	964.53	358.24	-1672.1	967.87	283.29	-1563	793.42	514.73	-1551.2	805.29	124.16	-1584.3	962.41	481.3	-1561.9	962	146.21	-1704	922.98	312.99	-1610.6	603.12	486.15	-1585.2	513.09	444.39	-1655.1	526.62	463.97	-1550.1	592.23	465.27	-1662.1	445.76	444.61	-1681	443.05	300.5	NaN	NaN	NaN	-1814.4	198.2	410.74	NaN	NaN	NaN	-1744.2	237.51	419.12	-1830.3	108.75	391.9	-1819.2	127.54	305.86	-1894.2	96.321	336.3	-1882.1	61.581	309.42	-1894.5	65.254	372.09	-1731.2	45.111	412.5	-1701.1	39.511	306.95	-1649.5	63.511	361.22	-1495	587.36	142.05	-1394.2	543.74	153.73	-1462.3	505.48	167.38	-1435.6	626.4	129.2	-1378.3	468.48	164.19	-1392.8	460.1	305.77	-1382.1	281.06	165.65	-1279.6	235.79	172.56	-1353	216.31	178.86	-1319	300.03	158.74	-1269.6	121.69	185.68	-1248	129.31	267.11	NaN	NaN	NaN	-1281.5	48.298	259.43	-1285.4	39.311	198.13	-1137.8	102.98	157.3	-1117.7	129.39	261.3	-1074.3	168.81	211.27	-1602.3	1390	334.83	-1684.1	1142.1	339.7
5	0.016667	NaN	NaN	NaN	-1500.4	1319.5	468.14	-1532.2	1330.7	177.07	-1480	1611	321.44	NaN	NaN	NaN	NaN	NaN	NaN	-1668.2	963.31	357.69	-1666.3	966.56	282.74	-1557.6	792.31	514.54	-1545.4	803.96	123.88	-1578.8	961.14	480.96	-1556.1	960.48	145.67	-1698.4	921.79	312.44	-1605.8	602.17	485.98	-1579.9	512.39	444.29	-1650.7	525.82	463.83	-1544.9	591.23	465.12	-1657.8	444.86	444.45	-1676.6	442.16	300.5	NaN	NaN	NaN	-1812.3	198.52	410.86	NaN	NaN	NaN	-1741.1	237.68	419.19	-1829.6	109.49	392.21	-1818.7	128.02	306.37	-1893.8	97.491	336.74	-1881.9	62.819	309.71	-1894.3	66.275	372.38	-1731.1	45.084	412.62	-1701	39.504	306.99	-1649.6	63.37	361.27	-1488.2	586.52	141.7	-1387.3	543.27	153.97	-1455.4	504.69	167.08	-1429	625.78	129.37	-1371.6	467.71	164.5	-1386.3	459.36	305.92	-1375.8	280.13	165.82	-1273.3	234.78	173.17	-1346.1	215.22	179.4	-1312.6	299.07	159.13	-1263.1	120.69	186.22	-1242.4	128.1	267.42	NaN	NaN	NaN	-1275.5	47.267	259.76	-1278.9	38.308	198.43	-1131	102.19	158.74	-1111.9	128.72	262.86	-1068.2	168.27	213.08	-1596.8	1388.7	334.18	-1678.4	1140.8	339.25
